<svg xmlns="http://www.w3.org/2000/svg" viewBox="0 0 800 800" vector-effect="non-scaling">
	<g id="circle-rotater" transform-origin="400" transform="rotate(0)">
		<circle cx="400" cy="400" r="200" stroke="white" stroke-width="2" fill="none" vector-effect="non-scaling-stroke" />
		<circle cx="400" cy="400" r="190" stroke="white" stroke-width="2" fill="none" vector-effect="non-scaling-stroke" />
		<line transform-origin="400" transform="rotate(0)" x1="190" y1="400" x2="210" y2="400" stroke="white" stroke-width="2" vector-effect="non-scaling-stroke" />
		<line transform-origin="400" transform="rotate(20)" x1="190" y1="400" x2="210" y2="400" stroke="white" stroke-width="2" vector-effect="non-scaling-stroke" />
		<line transform-origin="400" transform="rotate(40)" x1="190" y1="400" x2="210" y2="400" stroke="white" stroke-width="2" vector-effect="non-scaling-stroke" />
		<line transform-origin="400" transform="rotate(60)" x1="190" y1="400" x2="210" y2="400" stroke="white" stroke-width="2" vector-effect="non-scaling-stroke" />
		<line transform-origin="400" transform="rotate(80)" x1="190" y1="400" x2="210" y2="400" stroke="white" stroke-width="2" vector-effect="non-scaling-stroke" />
		<line transform-origin="400" transform="rotate(100)" x1="190" y1="400" x2="210" y2="400" stroke="white" stroke-width="2" vector-effect="non-scaling-stroke" />
		<line transform-origin="400" transform="rotate(120)" x1="190" y1="400" x2="210" y2="400" stroke="white" stroke-width="2" vector-effect="non-scaling-stroke" />
		<line transform-origin="400" transform="rotate(140)" x1="190" y1="400" x2="210" y2="400" stroke="white" stroke-width="2" vector-effect="non-scaling-stroke" />
		<line transform-origin="400" transform="rotate(160)" x1="190" y1="400" x2="210" y2="400" stroke="white" stroke-width="2" vector-effect="non-scaling-stroke" />
		<line transform-origin="400" transform="rotate(180)" x1="190" y1="400" x2="210" y2="400" stroke="white" stroke-width="2" vector-effect="non-scaling-stroke" />
		<line transform-origin="400" transform="rotate(200)" x1="190" y1="400" x2="210" y2="400" stroke="white" stroke-width="2" vector-effect="non-scaling-stroke" />
		<line transform-origin="400" transform="rotate(220)" x1="190" y1="400" x2="210" y2="400" stroke="white" stroke-width="2" vector-effect="non-scaling-stroke" />
		<line transform-origin="400" transform="rotate(240)" x1="190" y1="400" x2="210" y2="400" stroke="white" stroke-width="2" vector-effect="non-scaling-stroke" />
		<line transform-origin="400" transform="rotate(260)" x1="190" y1="400" x2="210" y2="400" stroke="white" stroke-width="2" vector-effect="non-scaling-stroke" />
		<line transform-origin="400" transform="rotate(280)" x1="190" y1="400" x2="210" y2="400" stroke="white" stroke-width="2" vector-effect="non-scaling-stroke" />
		<line transform-origin="400" transform="rotate(300)" x1="190" y1="400" x2="210" y2="400" stroke="white" stroke-width="2" vector-effect="non-scaling-stroke" />
		<line transform-origin="400" transform="rotate(320)" x1="190" y1="400" x2="210" y2="400" stroke="white" stroke-width="2" vector-effect="non-scaling-stroke" />
		<line transform-origin="400" transform="rotate(340)" x1="190" y1="400" x2="210" y2="400" stroke="white" stroke-width="2" vector-effect="non-scaling-stroke" />
	</g>
</svg>